<svg data-v-70b83f88="" version="1.0" xmlns="http://www.w3.org/2000/svg" xmlns:xlink="http://www.w3.org/1999/xlink" width="100%" height="100%" viewBox="0 0 340.000000 250.000000" preserveAspectRatio="xMidYMid meet" color-interpolation-filters="sRGB" style="margin: auto;"> <rect data-v-70b83f88="" x="0" y="0" width="100%" height="100%" fill="#ffffff" fill-opacity="1" class="background"></rect> <rect data-v-70b83f88="" x="0" y="0" width="100%" height="100%" fill="url(#watermark)" fill-opacity="1" class="watermarklayer"></rect> <g data-v-70b83f88="" fill="#333" class="icon-text-wrapper icon-svg-group iconsvg" transform="translate(81.82263803482056,71.56143188476562)"><g class="iconsvg-imagesvg" transform="translate(58.18000030517578,0)"><g><rect fill="#333" fill-opacity="0" stroke-width="2" x="0" y="0" width="60" height="60" class="image-rect"></rect> <svg x="0" y="0" width="60" height="60" filtersec="colorsb2241859870" class="image-svg-svg primary" style="overflow: visible;"><svg xmlns="http://www.w3.org/2000/svg" viewBox="0 0 61.37000274658203 61.37000274658203"><title>资源 38</title><g fill-rule="evenodd"><path fill="#E69138" d="M0 0h14.19v14.19H0V0z"></path><path d="M28.37 0h2.32a30.78 30.78 0 0 1 30.68 30.69 30.78 30.78 0 0 1-30.68 30.68H0v-33h14.19v18.82h16.5a16.5 16.5 0 0 0 0-33h-2.32V0z" fill="#6447AC"></path></g></svg></svg> <!----></g></g> <g transform="translate(0,67)"><g data-gra="path-name" fill-rule="" class="tp-name iconsvg-namesvg" transform="translate(0,0)"><g transform="scale(1)"><g><path d="M10.66 0L2.78 0 2.78-27.37 10.86-27.37Q14.49-27.37 17.3-25.75 20.11-24.13 21.65-21.16 23.19-18.19 23.19-14.36L23.19-14.36 23.19-12.99Q23.19-9.1 21.64-6.15 20.09-3.2 17.23-1.6 14.36 0 10.66 0L10.66 0ZM10.86-23.53L7.54-23.53 7.54-3.8 10.64-3.8Q14.38-3.8 16.38-6.14 18.38-8.48 18.42-12.86L18.42-12.86 18.42-14.38Q18.42-18.83 16.48-21.18 14.55-23.53 10.86-23.53L10.86-23.53ZM44.3 0L39.64 0Q39.34-0.58 39.11-1.9L39.11-1.9Q36.93 0.38 33.77 0.38L33.77 0.38Q30.71 0.38 28.78-1.37 26.84-3.12 26.84-5.69L26.84-5.69Q26.84-8.95 29.25-10.68 31.67-12.42 36.16-12.42L36.16-12.42 38.96-12.42 38.96-13.76Q38.96-15.34 38.08-16.29 37.2-17.24 35.39-17.24L35.39-17.24Q33.83-17.24 32.83-16.46 31.84-15.68 31.84-14.47L31.84-14.47 27.27-14.47Q27.27-16.14 28.38-17.6 29.49-19.06 31.4-19.89 33.3-20.71 35.65-20.71L35.65-20.71Q39.23-20.71 41.35-18.92 43.47-17.12 43.53-13.87L43.53-13.87 43.53-4.7Q43.53-1.95 44.3-0.32L44.3-0.32 44.3 0ZM34.62-3.29L34.62-3.29Q35.97-3.29 37.17-3.95 38.36-4.6 38.96-5.71L38.96-5.71 38.96-9.55 36.5-9.55Q33.96-9.55 32.68-8.66 31.41-7.78 31.41-6.16L31.41-6.16Q31.41-4.85 32.28-4.07 33.15-3.29 34.62-3.29ZM59.71-5.53L59.71-5.53Q59.71-6.75 58.71-7.39 57.7-8.03 55.37-8.51 53.04-9 51.48-9.75L51.48-9.75Q48.06-11.41 48.06-14.55L48.06-14.55Q48.06-17.18 50.28-18.95 52.49-20.71 55.92-20.71L55.92-20.71Q59.56-20.71 61.81-18.91 64.05-17.1 64.05-14.23L64.05-14.23 59.49-14.23Q59.49-15.54 58.51-16.42 57.53-17.29 55.92-17.29L55.92-17.29Q54.41-17.29 53.46-16.6 52.51-15.9 52.51-14.74L52.51-14.74Q52.51-13.68 53.4-13.1 54.28-12.52 56.97-11.93 59.66-11.33 61.19-10.52 62.72-9.7 63.46-8.55 64.2-7.41 64.2-5.77L64.2-5.77Q64.2-3.03 61.93-1.33 59.66 0.38 55.97 0.38L55.97 0.38Q53.47 0.38 51.52-0.53 49.56-1.43 48.47-3.01 47.38-4.59 47.38-6.41L47.38-6.41 51.82-6.41Q51.91-4.79 53.04-3.92 54.17-3.04 56.03-3.04L56.03-3.04Q57.83-3.04 58.77-3.73 59.71-4.42 59.71-5.53ZM72.68-28.87L72.68-18.12Q74.92-20.71 78.34-20.71L78.34-20.71Q84.84-20.71 84.93-13.29L84.93-13.29 84.93 0 80.37 0 80.37-13.12Q80.37-15.22 79.46-16.1 78.54-16.97 76.78-16.97L76.78-16.97Q74.03-16.97 72.68-14.53L72.68-14.53 72.68 0 68.11 0 68.11-28.87 72.68-28.87ZM106.14-8.91L110.87-8.91Q110.46-4.53 107.64-2.08 104.82 0.38 100.14 0.38L100.14 0.38Q96.87 0.38 94.38-1.17 91.89-2.73 90.54-5.58 89.18-8.44 89.13-12.22L89.13-12.22 89.13-14.77Q89.13-18.64 90.5-21.6 91.87-24.55 94.44-26.14 97-27.74 100.37-27.74L100.37-27.74Q104.9-27.74 107.66-25.28 110.42-22.82 110.87-18.33L110.87-18.33 106.14-18.33Q105.8-21.28 104.42-22.58 103.03-23.89 100.37-23.89L100.37-23.89Q97.26-23.89 95.6-21.62 93.94-19.36 93.9-14.98L93.9-14.98 93.9-12.56Q93.9-8.12 95.49-5.79 97.08-3.46 100.14-3.46L100.14-3.46Q102.94-3.46 104.35-4.72 105.76-5.98 106.14-8.91L106.14-8.91ZM134.35-27.37L134.35-23.53 125.81-23.53 125.81 0 121.1 0 121.1-23.53 112.64-23.53 112.64-27.37 134.35-27.37ZM153.48 0L147.99-10.54 142.69-10.54 142.69 0 137.94 0 137.94-27.37 147.56-27.37Q152.3-27.37 154.87-25.24 157.45-23.12 157.45-19.1L157.45-19.1Q157.45-16.35 156.12-14.5 154.8-12.65 152.43-11.65L152.43-11.65 158.57-0.24 158.57 0 153.48 0ZM142.69-23.53L142.69-14.36 147.58-14.36Q149.98-14.36 151.34-15.57 152.69-16.78 152.69-18.89L152.69-18.89Q152.69-21.09 151.44-22.29 150.19-23.49 147.71-23.53L147.71-23.53 142.69-23.53ZM166.71-27.37L166.71-3.8 179.14-3.8 179.14 0 161.96 0 161.96-27.37 166.71-27.37Z" transform="translate(-2.7799999713897705, 28.8700008392334)"></path></g> <!----> <!----> <!----> <!----> <!----> <!----> <!----></g></g> <g data-gra="path-slogan" fill-rule="" class="tp-slogan iconsvg-slogansvg" fill="#333" transform="translate(-1.5049972534179688,35.25)"><rect width="0"></rect> <rect x="182.3699951171875" width="0"></rect> <g transform="translate(0,0)"><g transform="scale(1)"><path d="M0.61-4.47L0.61 0L1.14 0L1.14-2.46C1.14-2.66 1.13-2.88 1.11-3.12C1.09-3.36 1.08-3.58 1.06-3.78L1.09-3.78L1.44-2.78L2.31-0.45L2.63-0.45L3.49-2.78L3.85-3.78L3.87-3.78C3.86-3.58 3.84-3.36 3.82-3.12C3.81-2.88 3.80-2.66 3.80-2.46L3.80 0L4.34 0L4.34-4.47L3.67-4.47L2.81-2.07L2.50-1.16L2.47-1.16L2.14-2.07L1.28-4.47ZM7.46-1.82L6.12-1.82L6.33-2.50C6.41-2.75 6.49-3.00 6.56-3.24C6.63-3.49 6.70-3.74 6.77-4.00L6.80-4.00C6.87-3.74 6.95-3.49 7.02-3.24C7.09-3.00 7.17-2.75 7.25-2.50ZM7.60-1.36L8.03 0L8.63 0L7.12-4.47L6.48-4.47L4.97 0L5.55 0L5.98-1.36ZM9.26-4.47L9.26 0L9.83 0L9.83-1.42L10.60-2.32L11.93 0L12.57 0L10.95-2.76L12.35-4.47L11.71-4.47L9.85-2.23L9.83-2.23L9.83-4.47ZM13.21-4.47L13.21 0L15.85 0L15.85-0.48L13.77-0.48L13.77-2.10L15.47-2.10L15.47-2.59L13.77-2.59L13.77-3.99L15.78-3.99L15.78-4.47ZM20.07-1.82L18.73-1.82L18.94-2.50C19.02-2.75 19.10-3.00 19.17-3.24C19.24-3.49 19.31-3.74 19.38-4.00L19.41-4.00C19.48-3.74 19.55-3.49 19.62-3.24C19.70-3.00 19.77-2.75 19.86-2.50ZM20.21-1.36L20.63 0L21.24 0L19.73-4.47L19.09-4.47L17.58 0L18.15 0L18.58-1.36ZM23.25-4.47L23.25 0L24.39 0C24.73 0 25.02-0.05 25.28-0.15C25.54-0.26 25.76-0.40 25.94-0.60C26.11-0.79 26.25-1.02 26.34-1.30C26.43-1.58 26.47-1.90 26.47-2.25C26.47-2.97 26.29-3.51 25.94-3.89C25.58-4.27 25.05-4.47 24.36-4.47ZM24.32-0.46L23.81-0.46L23.81-4.00L24.32-4.00C24.84-4.00 25.24-3.85 25.50-3.55C25.76-3.25 25.89-2.82 25.89-2.25C25.89-1.69 25.76-1.25 25.50-0.93C25.24-0.62 24.84-0.46 24.32-0.46ZM29.26-1.82L27.92-1.82L28.13-2.50C28.22-2.75 28.29-3.00 28.37-3.24C28.44-3.49 28.51-3.74 28.58-4.00L28.60-4.00C28.68-3.74 28.75-3.49 28.82-3.24C28.89-3.00 28.97-2.75 29.05-2.50ZM29.41-1.36L29.83 0L30.43 0L28.92-4.47L28.28-4.47L26.77 0L27.35 0L27.78-1.36ZM31.08-0.97L30.74-0.58C30.94-0.37 31.17-0.21 31.44-0.10C31.70 0.02 31.99 0.08 32.31 0.08C32.54 0.08 32.75 0.05 32.94-0.02C33.13-0.08 33.28-0.17 33.42-0.29C33.55-0.41 33.65-0.54 33.72-0.69C33.79-0.85 33.82-1.01 33.82-1.19C33.82-1.35 33.80-1.50 33.75-1.62C33.71-1.75 33.64-1.86 33.56-1.95C33.48-2.04 33.38-2.12 33.27-2.20C33.15-2.27 33.03-2.33 32.91-2.38L32.27-2.65C32.18-2.69 32.09-2.73 32.01-2.77C31.92-2.82 31.84-2.87 31.77-2.92C31.70-2.98 31.64-3.05 31.60-3.12C31.55-3.20 31.53-3.29 31.53-3.40C31.53-3.60 31.61-3.76 31.76-3.88C31.91-3.99 32.11-4.05 32.36-4.05C32.57-4.05 32.76-4.01 32.92-3.94C33.09-3.86 33.24-3.76 33.38-3.63L33.68-4.00C33.52-4.16 33.33-4.29 33.10-4.39C32.88-4.50 32.63-4.55 32.36-4.55C32.16-4.55 31.97-4.52 31.80-4.46C31.63-4.40 31.48-4.32 31.36-4.21C31.23-4.10 31.13-3.98 31.06-3.83C30.99-3.69 30.96-3.53 30.96-3.36C30.96-3.20 30.99-3.06 31.04-2.93C31.09-2.81 31.17-2.70 31.25-2.61C31.34-2.52 31.44-2.44 31.54-2.38C31.65-2.31 31.76-2.26 31.86-2.21L32.50-1.93C32.61-1.88 32.71-1.84 32.80-1.79C32.89-1.74 32.97-1.69 33.03-1.64C33.10-1.58 33.15-1.51 33.19-1.43C33.23-1.35 33.25-1.26 33.25-1.14C33.25-0.93 33.16-0.75 33.00-0.62C32.84-0.48 32.61-0.42 32.31-0.42C32.08-0.42 31.86-0.47 31.64-0.57C31.43-0.67 31.24-0.81 31.08-0.97ZM34.70-4.47L34.70 0L35.27 0L35.27-2.10L37.34-2.10L37.34 0L37.92 0L37.92-4.47L37.34-4.47L37.34-2.59L35.27-2.59L35.27-4.47ZM39.14-4.47L39.14 0L40.56 0C40.81 0 41.04-0.03 41.25-0.08C41.46-0.14 41.64-0.22 41.79-0.33C41.94-0.44 42.05-0.57 42.14-0.74C42.22-0.90 42.26-1.09 42.26-1.31C42.26-1.62 42.17-1.86 41.99-2.04C41.80-2.21 41.55-2.33 41.22-2.38L41.22-2.40C41.49-2.47 41.68-2.59 41.81-2.77C41.94-2.95 42.00-3.15 42.00-3.38C42.00-3.57 41.96-3.74 41.89-3.88C41.81-4.02 41.71-4.13 41.57-4.21C41.44-4.30 41.28-4.36 41.09-4.40C40.90-4.45 40.70-4.47 40.47-4.47ZM40.37-2.56L39.71-2.56L39.71-4.02L40.39-4.02C40.74-4.02 41.00-3.96 41.18-3.86C41.35-3.75 41.44-3.57 41.44-3.33C41.44-3.08 41.36-2.89 41.19-2.76C41.03-2.63 40.75-2.56 40.37-2.56ZM40.48-0.45L39.71-0.45L39.71-2.14L40.48-2.14C40.88-2.14 41.18-2.07 41.39-1.94C41.60-1.81 41.70-1.61 41.70-1.33C41.70-1.03 41.59-0.81 41.38-0.66C41.17-0.52 40.87-0.45 40.48-0.45ZM44.79 0.08C45.07 0.08 45.33 0.03 45.56-0.08C45.80-0.19 46.00-0.35 46.17-0.55C46.34-0.75 46.47-0.99 46.56-1.28C46.66-1.57 46.70-1.89 46.70-2.25C46.70-2.61 46.66-2.93 46.56-3.21C46.47-3.49 46.34-3.73 46.17-3.93C46.00-4.13 45.80-4.28 45.56-4.39C45.33-4.49 45.07-4.55 44.79-4.55C44.51-4.55 44.25-4.49 44.02-4.39C43.78-4.29 43.58-4.14 43.42-3.94C43.25-3.74 43.12-3.50 43.02-3.22C42.93-2.93 42.88-2.61 42.88-2.25C42.88-1.89 42.93-1.57 43.02-1.28C43.12-0.99 43.25-0.75 43.42-0.55C43.58-0.35 43.78-0.19 44.02-0.08C44.25 0.03 44.51 0.08 44.79 0.08ZM44.79-0.42C44.59-0.42 44.41-0.46 44.25-0.54C44.09-0.63 43.95-0.75 43.83-0.92C43.72-1.08 43.63-1.27 43.57-1.49C43.50-1.72 43.47-1.97 43.47-2.25C43.47-2.53 43.50-2.78 43.57-3.00C43.63-3.22 43.72-3.41 43.83-3.57C43.95-3.72 44.09-3.84 44.25-3.92C44.41-4.01 44.59-4.05 44.79-4.05C44.99-4.05 45.17-4.01 45.33-3.92C45.49-3.84 45.63-3.72 45.75-3.57C45.86-3.41 45.95-3.22 46.02-3.00C46.08-2.78 46.11-2.53 46.11-2.25C46.11-1.97 46.08-1.72 46.02-1.49C45.95-1.27 45.86-1.08 45.75-0.92C45.63-0.75 45.49-0.63 45.33-0.54C45.17-0.46 44.99-0.42 44.79-0.42ZM49.49-1.82L48.15-1.82L48.36-2.50C48.45-2.75 48.52-3.00 48.60-3.24C48.67-3.49 48.74-3.74 48.81-4.00L48.83-4.00C48.91-3.74 48.98-3.49 49.05-3.24C49.12-3.00 49.20-2.75 49.28-2.50ZM49.64-1.36L50.06 0L50.67 0L49.15-4.47L48.51-4.47L47.00 0L47.58 0L48.01-1.36ZM51.86-2.35L51.86-4.01L52.61-4.01C52.96-4.01 53.23-3.95 53.42-3.83C53.60-3.71 53.69-3.51 53.69-3.21C53.69-2.92 53.60-2.71 53.42-2.56C53.23-2.42 52.96-2.35 52.61-2.35ZM53.75 0L54.39 0L53.26-1.95C53.56-2.02 53.81-2.17 53.99-2.38C54.17-2.58 54.26-2.86 54.26-3.21C54.26-3.44 54.22-3.64 54.14-3.80C54.07-3.96 53.96-4.09 53.82-4.19C53.68-4.29 53.52-4.36 53.32-4.40C53.13-4.44 52.92-4.47 52.69-4.47L51.30-4.47L51.30 0L51.86 0L51.86-1.89L52.67-1.89ZM55.25-4.47L55.25 0L56.40 0C56.73 0 57.03-0.05 57.29-0.15C57.55-0.26 57.77-0.40 57.94-0.60C58.12-0.79 58.25-1.02 58.34-1.30C58.43-1.58 58.48-1.90 58.48-2.25C58.48-2.97 58.30-3.51 57.94-3.89C57.58-4.27 57.06-4.47 56.37-4.47ZM56.33-0.46L55.82-0.46L55.82-4.00L56.33-4.00C56.85-4.00 57.24-3.85 57.50-3.55C57.76-3.25 57.89-2.82 57.89-2.25C57.89-1.69 57.76-1.25 57.50-0.93C57.24-0.62 56.85-0.46 56.33-0.46ZM61.74-3.99L61.74 0L62.31 0L62.31-3.99L63.66-3.99L63.66-4.47L60.39-4.47L60.39-3.99ZM64.46-4.47L64.46 0L65.03 0L65.03-2.10L67.10-2.10L67.10 0L67.68 0L67.68-4.47L67.10-4.47L67.10-2.59L65.03-2.59L65.03-4.47ZM70.80-1.82L69.46-1.82L69.67-2.50C69.75-2.75 69.83-3.00 69.90-3.24C69.97-3.49 70.05-3.74 70.11-4.00L70.14-4.00C70.21-3.74 70.29-3.49 70.36-3.24C70.43-3.00 70.51-2.75 70.59-2.50ZM70.94-1.36L71.37 0L71.97 0L70.46-4.47L69.82-4.47L68.31 0L68.89 0L69.32-1.36ZM73.26-3.99L73.26 0L73.83 0L73.83-3.99L75.18-3.99L75.18-4.47L71.91-4.47L71.91-3.99ZM77.10-2.23C77.10-1.87 77.15-1.54 77.25-1.26C77.35-0.97 77.49-0.72 77.66-0.53C77.84-0.33 78.05-0.18 78.30-0.07C78.54 0.03 78.81 0.08 79.11 0.08C79.40 0.08 79.67 0.03 79.91-0.06C80.15-0.16 80.34-0.29 80.49-0.44L80.49-2.31L79.02-2.31L79.02-1.84L79.97-1.84L79.97-0.68C79.88-0.60 79.76-0.53 79.62-0.49C79.48-0.44 79.33-0.42 79.17-0.42C78.93-0.42 78.71-0.46 78.53-0.54C78.35-0.63 78.19-0.75 78.07-0.91C77.94-1.07 77.85-1.26 77.78-1.49C77.72-1.71 77.68-1.96 77.68-2.25C77.68-2.52 77.72-2.77 77.79-3.00C77.86-3.22 77.96-3.41 78.08-3.56C78.21-3.72 78.37-3.84 78.55-3.92C78.73-4.01 78.93-4.05 79.16-4.05C79.39-4.05 79.57-4.01 79.72-3.93C79.87-3.85 80.00-3.75 80.11-3.63L80.43-4.00C80.30-4.13 80.13-4.26 79.93-4.37C79.72-4.49 79.46-4.55 79.15-4.55C78.85-4.55 78.58-4.49 78.33-4.39C78.08-4.28 77.86-4.13 77.68-3.93C77.50-3.73 77.35-3.49 77.25-3.20C77.15-2.91 77.10-2.59 77.10-2.23ZM81.56-4.47L81.56 0L82.12 0L82.12-4.47ZM82.73-4.47L84.16 0L84.82 0L86.24-4.47L85.66-4.47L84.95-2.06C84.87-1.79 84.80-1.54 84.73-1.31C84.67-1.09 84.60-0.84 84.52-0.58L84.49-0.58C84.40-0.84 84.33-1.09 84.27-1.31C84.21-1.54 84.14-1.79 84.05-2.06L83.34-4.47ZM86.85-4.47L86.85 0L89.49 0L89.49-0.48L87.42-0.48L87.42-2.10L89.11-2.10L89.11-2.59L87.42-2.59L87.42-3.99L89.42-3.99L89.42-4.47ZM90.45-0.97L90.11-0.58C90.31-0.37 90.54-0.21 90.81-0.10C91.07 0.02 91.36 0.08 91.68 0.08C91.91 0.08 92.12 0.05 92.31-0.02C92.50-0.08 92.66-0.17 92.79-0.29C92.92-0.41 93.02-0.54 93.09-0.69C93.16-0.85 93.20-1.01 93.20-1.19C93.20-1.35 93.17-1.50 93.12-1.62C93.08-1.75 93.01-1.86 92.93-1.95C92.85-2.04 92.75-2.12 92.64-2.20C92.52-2.27 92.40-2.33 92.28-2.38L91.64-2.65C91.55-2.69 91.46-2.73 91.38-2.77C91.29-2.82 91.21-2.87 91.14-2.92C91.07-2.98 91.01-3.05 90.97-3.12C90.92-3.20 90.90-3.29 90.90-3.40C90.90-3.60 90.98-3.76 91.13-3.88C91.28-3.99 91.48-4.05 91.73-4.05C91.94-4.05 92.13-4.01 92.29-3.94C92.46-3.86 92.61-3.76 92.75-3.63L93.05-4.00C92.89-4.16 92.70-4.29 92.47-4.39C92.25-4.50 92.00-4.55 91.73-4.55C91.53-4.55 91.34-4.52 91.17-4.46C91.00-4.40 90.85-4.32 90.73-4.21C90.60-4.10 90.51-3.98 90.44-3.83C90.37-3.69 90.33-3.53 90.33-3.36C90.33-3.20 90.36-3.06 90.41-2.93C90.47-2.81 90.54-2.70 90.62-2.61C90.71-2.52 90.81-2.44 90.92-2.38C91.02-2.31 91.13-2.26 91.24-2.21L91.88-1.93C91.98-1.88 92.08-1.84 92.17-1.79C92.26-1.74 92.34-1.69 92.40-1.64C92.47-1.58 92.52-1.51 92.56-1.43C92.60-1.35 92.62-1.26 92.62-1.14C92.62-0.93 92.54-0.75 92.37-0.62C92.21-0.48 91.98-0.42 91.68-0.42C91.45-0.42 91.23-0.47 91.01-0.57C90.80-0.67 90.61-0.81 90.45-0.97ZM96.17-1.73L96.17 0L96.74 0L96.74-1.73L98.08-4.47L97.49-4.47L96.92-3.21C96.85-3.04 96.78-2.88 96.70-2.72C96.62-2.56 96.55-2.40 96.47-2.23L96.44-2.23C96.37-2.40 96.29-2.56 96.23-2.72C96.16-2.88 96.09-3.04 96.01-3.21L95.44-4.47L94.83-4.47ZM100.24 0.08C100.52 0.08 100.78 0.03 101.01-0.08C101.25-0.19 101.45-0.35 101.62-0.55C101.79-0.75 101.92-0.99 102.01-1.28C102.11-1.57 102.15-1.89 102.15-2.25C102.15-2.61 102.11-2.93 102.01-3.21C101.92-3.49 101.79-3.73 101.62-3.93C101.45-4.13 101.25-4.28 101.01-4.39C100.78-4.49 100.52-4.55 100.24-4.55C99.96-4.55 99.70-4.49 99.47-4.39C99.23-4.29 99.03-4.14 98.87-3.94C98.70-3.74 98.57-3.50 98.47-3.22C98.38-2.93 98.34-2.61 98.34-2.25C98.34-1.89 98.38-1.57 98.47-1.28C98.57-0.99 98.70-0.75 98.87-0.55C99.03-0.35 99.23-0.19 99.47-0.08C99.70 0.03 99.96 0.08 100.24 0.08ZM100.24-0.42C100.04-0.42 99.86-0.46 99.70-0.54C99.54-0.63 99.40-0.75 99.28-0.92C99.17-1.08 99.08-1.27 99.02-1.49C98.95-1.72 98.92-1.97 98.92-2.25C98.92-2.53 98.95-2.78 99.02-3.00C99.08-3.22 99.17-3.41 99.28-3.57C99.40-3.72 99.54-3.84 99.70-3.92C99.86-4.01 100.04-4.05 100.24-4.05C100.44-4.05 100.62-4.01 100.78-3.92C100.94-3.84 101.08-3.72 101.20-3.57C101.31-3.41 101.40-3.22 101.47-3.00C101.53-2.78 101.56-2.53 101.56-2.25C101.56-1.97 101.53-1.72 101.47-1.49C101.40-1.27 101.31-1.08 101.20-0.92C101.08-0.75 100.94-0.63 100.78-0.54C100.62-0.46 100.44-0.42 100.24-0.42ZM103.09-4.47L103.09-1.84C103.09-1.49 103.13-1.18 103.22-0.94C103.30-0.69 103.41-0.50 103.55-0.34C103.70-0.19 103.87-0.08 104.06-0.02C104.26 0.05 104.47 0.08 104.70 0.08C104.93 0.08 105.14 0.05 105.33-0.02C105.53-0.08 105.70-0.19 105.84-0.34C105.98-0.50 106.10-0.69 106.18-0.94C106.26-1.18 106.30-1.49 106.30-1.84L106.30-4.47L105.76-4.47L105.76-1.83C105.76-1.56 105.73-1.34 105.67-1.16C105.62-0.98 105.54-0.83 105.45-0.72C105.35-0.61 105.24-0.53 105.12-0.49C104.99-0.44 104.85-0.42 104.70-0.42C104.55-0.42 104.42-0.44 104.29-0.49C104.16-0.53 104.05-0.61 103.96-0.72C103.87-0.83 103.79-0.98 103.74-1.16C103.69-1.34 103.66-1.56 103.66-1.83L103.66-4.47ZM108.62-2.23C108.62-1.87 108.67-1.54 108.77-1.26C108.86-0.97 109.00-0.72 109.18-0.53C109.35-0.33 109.56-0.18 109.80-0.07C110.03 0.03 110.29 0.08 110.57 0.08C110.86 0.08 111.11 0.02 111.34-0.09C111.56-0.20 111.76-0.36 111.94-0.56L111.62-0.91C111.47-0.75 111.32-0.63 111.16-0.54C111.00-0.46 110.81-0.42 110.59-0.42C110.37-0.42 110.18-0.46 110.01-0.54C109.84-0.63 109.70-0.75 109.58-0.91C109.46-1.07 109.37-1.26 109.30-1.49C109.24-1.71 109.21-1.96 109.21-2.25C109.21-2.52 109.24-2.77 109.31-3.00C109.38-3.22 109.47-3.41 109.59-3.56C109.72-3.72 109.86-3.84 110.04-3.92C110.21-4.01 110.40-4.05 110.62-4.05C110.81-4.05 110.97-4.01 111.12-3.94C111.26-3.86 111.39-3.76 111.51-3.63L111.83-4.00C111.70-4.14 111.53-4.27 111.32-4.38C111.12-4.49 110.88-4.55 110.61-4.55C110.32-4.55 110.06-4.49 109.82-4.39C109.57-4.28 109.36-4.13 109.19-3.93C109.01-3.73 108.87-3.49 108.77-3.20C108.67-2.91 108.62-2.59 108.62-2.23ZM114.22 0.08C114.50 0.08 114.76 0.03 114.99-0.08C115.22-0.19 115.42-0.35 115.59-0.55C115.76-0.75 115.90-0.99 115.99-1.28C116.08-1.57 116.13-1.89 116.13-2.25C116.13-2.61 116.08-2.93 115.99-3.21C115.90-3.49 115.76-3.73 115.59-3.93C115.42-4.13 115.22-4.28 114.99-4.39C114.76-4.49 114.50-4.55 114.22-4.55C113.93-4.55 113.68-4.49 113.44-4.39C113.21-4.29 113.01-4.14 112.84-3.94C112.67-3.74 112.54-3.50 112.45-3.22C112.36-2.93 112.31-2.61 112.31-2.25C112.31-1.89 112.36-1.57 112.45-1.28C112.54-0.99 112.67-0.75 112.84-0.55C113.01-0.35 113.21-0.19 113.44-0.08C113.68 0.03 113.93 0.08 114.22 0.08ZM114.22-0.42C114.02-0.42 113.84-0.46 113.68-0.54C113.51-0.63 113.38-0.75 113.26-0.92C113.14-1.08 113.05-1.27 112.99-1.49C112.93-1.72 112.90-1.97 112.90-2.25C112.90-2.53 112.93-2.78 112.99-3.00C113.05-3.22 113.14-3.41 113.26-3.57C113.38-3.72 113.51-3.84 113.68-3.92C113.84-4.01 114.02-4.05 114.22-4.05C114.42-4.05 114.60-4.01 114.76-3.92C114.92-3.84 115.06-3.72 115.17-3.57C115.29-3.41 115.38-3.22 115.44-3.00C115.51-2.78 115.54-2.53 115.54-2.25C115.54-1.97 115.51-1.72 115.44-1.49C115.38-1.27 115.29-1.08 115.17-0.92C115.06-0.75 114.92-0.63 114.76-0.54C114.60-0.46 114.42-0.42 114.22-0.42ZM117.09-4.47L117.09 0L117.63 0L117.63-2.33C117.63-2.57 117.62-2.81 117.60-3.04C117.59-3.27 117.57-3.50 117.55-3.73L117.58-3.73L118.06-2.81L119.68 0L120.27 0L120.27-4.47L119.73-4.47L119.73-2.16C119.73-1.92 119.74-1.68 119.75-1.44C119.77-1.20 119.78-0.96 119.80-0.74L119.77-0.74L119.29-1.66L117.67-4.47ZM122.42-3.99L122.42 0L122.99 0L122.99-3.99L124.34-3.99L124.34-4.47L121.07-4.47L121.07-3.99ZM125.71-2.35L125.71-4.01L126.46-4.01C126.80-4.01 127.07-3.95 127.26-3.83C127.44-3.71 127.54-3.51 127.54-3.21C127.54-2.92 127.44-2.71 127.26-2.56C127.07-2.42 126.80-2.35 126.46-2.35ZM127.59 0L128.23 0L127.10-1.95C127.41-2.02 127.65-2.17 127.83-2.38C128.01-2.58 128.10-2.86 128.10-3.21C128.10-3.44 128.06-3.64 127.99-3.80C127.91-3.96 127.80-4.09 127.66-4.19C127.53-4.29 127.36-4.36 127.17-4.40C126.97-4.44 126.76-4.47 126.54-4.47L125.14-4.47L125.14 0L125.71 0L125.71-1.89L126.52-1.89ZM130.74 0.08C131.03 0.08 131.28 0.03 131.52-0.08C131.75-0.19 131.95-0.35 132.12-0.55C132.29-0.75 132.42-0.99 132.52-1.28C132.61-1.57 132.66-1.89 132.66-2.25C132.66-2.61 132.61-2.93 132.52-3.21C132.42-3.49 132.29-3.73 132.12-3.93C131.95-4.13 131.75-4.28 131.52-4.39C131.28-4.49 131.03-4.55 130.74-4.55C130.46-4.55 130.20-4.49 129.97-4.39C129.74-4.29 129.54-4.14 129.37-3.94C129.20-3.74 129.07-3.50 128.98-3.22C128.88-2.93 128.84-2.61 128.84-2.25C128.84-1.89 128.88-1.57 128.98-1.28C129.07-0.99 129.20-0.75 129.37-0.55C129.54-0.35 129.74-0.19 129.97-0.08C130.20 0.03 130.46 0.08 130.74 0.08ZM130.74-0.42C130.54-0.42 130.36-0.46 130.20-0.54C130.04-0.63 129.90-0.75 129.79-0.92C129.67-1.08 129.58-1.27 129.52-1.49C129.46-1.72 129.42-1.97 129.42-2.25C129.42-2.53 129.46-2.78 129.52-3.00C129.58-3.22 129.67-3.41 129.79-3.57C129.90-3.72 130.04-3.84 130.20-3.92C130.36-4.01 130.54-4.05 130.74-4.05C130.94-4.05 131.12-4.01 131.29-3.92C131.45-3.84 131.58-3.72 131.70-3.57C131.82-3.41 131.91-3.22 131.97-3.00C132.03-2.78 132.06-2.53 132.06-2.25C132.06-1.97 132.03-1.72 131.97-1.49C131.91-1.27 131.82-1.08 131.70-0.92C131.58-0.75 131.45-0.63 131.29-0.54C131.12-0.46 130.94-0.42 130.74-0.42ZM133.62-4.47L133.62 0L136.14 0L136.14-0.48L134.18-0.48L134.18-4.47ZM139.95 0.08C140.23 0.08 140.49 0.03 140.72-0.08C140.95-0.19 141.16-0.35 141.33-0.55C141.50-0.75 141.63-0.99 141.72-1.28C141.81-1.57 141.86-1.89 141.86-2.25C141.86-2.61 141.81-2.93 141.72-3.21C141.63-3.49 141.50-3.73 141.33-3.93C141.16-4.13 140.95-4.28 140.72-4.39C140.49-4.49 140.23-4.55 139.95-4.55C139.67-4.55 139.41-4.49 139.17-4.39C138.94-4.29 138.74-4.14 138.57-3.94C138.40-3.74 138.27-3.50 138.18-3.22C138.09-2.93 138.04-2.61 138.04-2.25C138.04-1.89 138.09-1.57 138.18-1.28C138.27-0.99 138.40-0.75 138.57-0.55C138.74-0.35 138.94-0.19 139.17-0.08C139.41 0.03 139.67 0.08 139.95 0.08ZM139.95-0.42C139.75-0.42 139.57-0.46 139.41-0.54C139.24-0.63 139.11-0.75 138.99-0.92C138.87-1.08 138.79-1.27 138.72-1.49C138.66-1.72 138.63-1.97 138.63-2.25C138.63-2.53 138.66-2.78 138.72-3.00C138.79-3.22 138.87-3.41 138.99-3.57C139.11-3.72 139.24-3.84 139.41-3.92C139.57-4.01 139.75-4.05 139.95-4.05C140.15-4.05 140.33-4.01 140.49-3.92C140.65-3.84 140.79-3.72 140.90-3.57C141.02-3.41 141.11-3.22 141.17-3.00C141.24-2.78 141.27-2.53 141.27-2.25C141.27-1.97 141.24-1.72 141.17-1.49C141.11-1.27 141.02-1.08 140.90-0.92C140.79-0.75 140.65-0.63 140.49-0.54C140.33-0.46 140.15-0.42 139.95-0.42ZM142.82-4.47L142.82 0L143.36 0L143.36-2.33C143.36-2.57 143.35-2.81 143.33-3.04C143.32-3.27 143.30-3.50 143.28-3.73L143.31-3.73L143.79-2.81L145.41 0L146.00 0L146.00-4.47L145.46-4.47L145.46-2.16C145.46-1.92 145.47-1.68 145.48-1.44C145.50-1.20 145.52-0.96 145.53-0.74L145.50-0.74L145.02-1.66L143.41-4.47ZM149.32-1.73L149.32 0L149.89 0L149.89-1.73L151.23-4.47L150.64-4.47L150.07-3.21C150.00-3.04 149.93-2.88 149.85-2.72C149.77-2.56 149.70-2.40 149.62-2.23L149.59-2.23C149.52-2.40 149.44-2.56 149.37-2.72C149.31-2.88 149.24-3.04 149.16-3.21L148.59-4.47L147.98-4.47ZM153.39 0.08C153.67 0.08 153.93 0.03 154.16-0.08C154.40-0.19 154.60-0.35 154.77-0.55C154.94-0.75 155.07-0.99 155.16-1.28C155.26-1.57 155.30-1.89 155.30-2.25C155.30-2.61 155.26-2.93 155.16-3.21C155.07-3.49 154.94-3.73 154.77-3.93C154.60-4.13 154.40-4.28 154.16-4.39C153.93-4.49 153.67-4.55 153.39-4.55C153.11-4.55 152.85-4.49 152.62-4.39C152.38-4.29 152.18-4.14 152.02-3.94C151.85-3.74 151.72-3.50 151.62-3.22C151.53-2.93 151.49-2.61 151.49-2.25C151.49-1.89 151.53-1.57 151.62-1.28C151.72-0.99 151.85-0.75 152.02-0.55C152.18-0.35 152.38-0.19 152.62-0.08C152.85 0.03 153.11 0.08 153.39 0.08ZM153.39-0.42C153.19-0.42 153.01-0.46 152.85-0.54C152.69-0.63 152.55-0.75 152.43-0.92C152.32-1.08 152.23-1.27 152.17-1.49C152.10-1.72 152.07-1.97 152.07-2.25C152.07-2.53 152.10-2.78 152.17-3.00C152.23-3.22 152.32-3.41 152.43-3.57C152.55-3.72 152.69-3.84 152.85-3.92C153.01-4.01 153.19-4.05 153.39-4.05C153.59-4.05 153.77-4.01 153.93-3.92C154.09-3.84 154.23-3.72 154.35-3.57C154.46-3.41 154.55-3.22 154.62-3.00C154.68-2.78 154.71-2.53 154.71-2.25C154.71-1.97 154.68-1.72 154.62-1.49C154.55-1.27 154.46-1.08 154.35-0.92C154.23-0.75 154.09-0.63 153.93-0.54C153.77-0.46 153.59-0.42 153.39-0.42ZM156.24-4.47L156.24-1.84C156.24-1.49 156.28-1.18 156.37-0.94C156.45-0.69 156.56-0.50 156.70-0.34C156.85-0.19 157.02-0.08 157.21-0.02C157.41 0.05 157.62 0.08 157.85 0.08C158.08 0.08 158.29 0.05 158.48-0.02C158.68-0.08 158.85-0.19 158.99-0.34C159.13-0.50 159.25-0.69 159.33-0.94C159.41-1.18 159.45-1.49 159.45-1.84L159.45-4.47L158.90-4.47L158.90-1.83C158.90-1.56 158.88-1.34 158.82-1.16C158.77-0.98 158.69-0.83 158.60-0.72C158.50-0.61 158.39-0.53 158.26-0.49C158.14-0.44 158.00-0.42 157.85-0.42C157.70-0.42 157.57-0.44 157.44-0.49C157.31-0.53 157.20-0.61 157.11-0.72C157.02-0.83 156.94-0.98 156.89-1.16C156.84-1.34 156.81-1.56 156.81-1.83L156.81-4.47ZM161.22-2.35L161.22-4.01L161.97-4.01C162.32-4.01 162.59-3.95 162.77-3.83C162.96-3.71 163.05-3.51 163.05-3.21C163.05-2.92 162.96-2.71 162.77-2.56C162.59-2.42 162.32-2.35 161.97-2.35ZM163.10 0L163.74 0L162.61-1.95C162.92-2.02 163.16-2.17 163.34-2.38C163.52-2.58 163.62-2.86 163.62-3.21C163.62-3.44 163.58-3.64 163.50-3.80C163.42-3.96 163.31-4.09 163.18-4.19C163.04-4.29 162.87-4.36 162.68-4.40C162.49-4.44 162.28-4.47 162.05-4.47L160.65-4.47L160.65 0L161.22 0L161.22-1.89L162.03-1.89ZM165.98-4.47L165.98 0L167.13 0C167.46 0 167.76-0.05 168.02-0.15C168.28-0.26 168.50-0.40 168.67-0.60C168.85-0.79 168.98-1.02 169.07-1.30C169.17-1.58 169.21-1.90 169.21-2.25C169.21-2.97 169.03-3.51 168.67-3.89C168.31-4.27 167.79-4.47 167.10-4.47ZM167.06-0.46L166.55-0.46L166.55-4.00L167.06-4.00C167.58-4.00 167.97-3.85 168.23-3.55C168.49-3.25 168.63-2.82 168.63-2.25C168.63-1.69 168.49-1.25 168.23-0.93C167.97-0.62 167.58-0.46 167.06-0.46ZM172.00-1.82L170.66-1.82L170.87-2.50C170.95-2.75 171.03-3.00 171.10-3.24C171.18-3.49 171.25-3.74 171.31-4.00L171.34-4.00C171.41-3.74 171.49-3.49 171.56-3.24C171.63-3.00 171.71-2.75 171.79-2.50ZM172.14-1.36L172.57 0L173.17 0L171.66-4.47L171.02-4.47L169.51 0L170.09 0L170.52-1.36ZM174.46-3.99L174.46 0L175.03 0L175.03-3.99L176.38-3.99L176.38-4.47L173.11-4.47L173.11-3.99ZM178.81-1.82L177.47-1.82L177.68-2.50C177.76-2.75 177.84-3.00 177.91-3.24C177.98-3.49 178.05-3.74 178.12-4.00L178.15-4.00C178.22-3.74 178.29-3.49 178.37-3.24C178.44-3.00 178.52-2.75 178.60-2.50ZM178.95-1.36L179.37 0L179.98 0L178.47-4.47L177.83-4.47L176.32 0L176.90 0L177.32-1.36Z" transform="translate(-0.6126385054645843, 4.547139129448248)"></path></g></g></g></g></g><defs v-gra="od"></defs></svg>
