<svg data-v-70b83f88="" version="1.0" xmlns="http://www.w3.org/2000/svg" xmlns:xlink="http://www.w3.org/1999/xlink" width="100%" height="100%" viewBox="0 0 340.000000 250.000000" preserveAspectRatio="xMidYMid meet" color-interpolation-filters="sRGB" style="margin: auto;"> <rect data-v-70b83f88="" x="0" y="0" width="100%" height="100%" fill="#feffff" fill-opacity="1" class="background"></rect> <rect data-v-70b83f88="" x="0" y="0" width="100%" height="100%" fill="url(#watermark)" fill-opacity="1" class="watermarklayer"></rect> <g data-v-70b83f88="" class="iconmbgsvg" transform="translate(77.1500015258789,51.93379211425781)"><g fill="#333333" hollow-target="textRect"><g fill="#674EA7" class="iconsvg-imagesvg icon_container" transform="translate(19.783790588378906,0)" mask="url(#6c155998-b488-4db5-80dd-1906f7af8942)"><rect fill="#333333" fill-opacity="0" stroke-width="2" x="0" y="0" width="146.13240418118468" height="146.13240418118468" class="image-rect"></rect> <svg viewBox="0 0 60 60" x="0" y="0" width="146.13240418118468" height="146.13240418118468" class="image-svg-svg bn" style="overflow: visible;"><g hollow-target="iconBnFill" mask="url(#0cb42655-6d47-415e-a0fb-acc6d970c371)"><g><svg xmlns="http://www.w3.org/2000/svg" xmlns:xlink="http://www.w3.org/1999/xlink" xmlns:sketch="http://www.bohemiancoding.com/sketch/ns" viewBox="0 0 60 60" version="1.1" x="0" y="0" style="overflow: visible;" width="60" height="60" filtersec="colorsf1313021391" filter="url(#S1vtnyNHDZ_7uwJjAbIQS)"><g transform="scale(1, 1) skewX(0)"><title>96 - Rounded (Solid)</title><desc>Created with Sketch.</desc><g stroke="none" stroke-width="1" fill-rule="evenodd" sketch:type="MSPage"><g sketch:type="MSLayerGroup"><path d="M49.001,0 L10.999,0 C4.934,0 0,4.934 0,10.999 L0,49.001 C0,55.066 4.934,60 10.999,60 L49.001,60 C55.065,60 60,55.066 60,49.001 L60,10.999 C60,4.934 55.065,0 49.001,0" sketch:type="MSShapeGroup"></path></g></g></g><defs><filter id="S1vtnyNHDZ_7uwJjAbIQS"><feColorMatrix type="matrix" values="0 0 0 0 0.40234375  0 0 0 0 0.3046875  0 0 0 0 0.65234375  0 0 0 1 0"></feColorMatrix></filter></defs></svg></g> <g filter="url(#colors339608241)"><svg xmlns="http://www.w3.org/2000/svg" xmlns:xlink="http://www.w3.org/1999/xlink" viewBox="0 0 43.632000000000005 50.328" width="38" height="38" x="11" y="11" class="image-svg-letter"><path transform="translate(-4.32 50.328)" d="M4.32 0L4.32-50.33L21.17-50.33Q29.38-50.33 35.42-47.30Q41.47-44.28 44.71-38.66Q47.95-33.05 47.95-25.42L47.95-25.42Q47.95-12.89 40.68-6.44Q33.41 0 20.38 0L20.38 0L4.32 0ZM13.46-7.56L20.52-7.56Q29.30-7.56 34.02-12.28Q38.74-16.99 38.74-25.42L38.74-25.42Q38.74-30.53 36.65-34.45Q34.56-38.38 30.67-40.57Q26.78-42.77 21.46-42.77L21.46-42.77L13.46-42.77L13.46-7.56Z"></path></svg></g></g><mask id="0cb42655-6d47-415e-a0fb-acc6d970c371"><g fill="white"><svg xmlns="http://www.w3.org/2000/svg" xmlns:xlink="http://www.w3.org/1999/xlink" xmlns:sketch="http://www.bohemiancoding.com/sketch/ns" viewBox="0 0 60 60" version="1.1" x="0" y="0" style="overflow: visible;" width="60" height="60" filtersec="colorsf1313021391"><g transform="scale(1, 1) skewX(0)"><title>96 - Rounded (Solid)</title><desc>Created with Sketch.</desc><g stroke="white" stroke-width="1" fill-rule="evenodd" sketch:type="MSPage"><g sketch:type="MSLayerGroup"><path d="M49.001,0 L10.999,0 C4.934,0 0,4.934 0,10.999 L0,49.001 C0,55.066 4.934,60 10.999,60 L49.001,60 C55.065,60 60,55.066 60,49.001 L60,10.999 C60,4.934 55.065,0 49.001,0" sketch:type="MSShapeGroup"></path></g></g></g><defs></defs></svg></g> <g fill="black"><svg xmlns="http://www.w3.org/2000/svg" xmlns:xlink="http://www.w3.org/1999/xlink" viewBox="0 0 43.632000000000005 50.328" width="38" height="38" x="11" y="11" class="image-svg-letter"><path transform="translate(-4.32 50.328)" d="M4.32 0L4.32-50.33L21.17-50.33Q29.38-50.33 35.42-47.30Q41.47-44.28 44.71-38.66Q47.95-33.05 47.95-25.42L47.95-25.42Q47.95-12.89 40.68-6.44Q33.41 0 20.38 0L20.38 0L4.32 0ZM13.46-7.56L20.52-7.56Q29.30-7.56 34.02-12.28Q38.74-16.99 38.74-25.42L38.74-25.42Q38.74-30.53 36.65-34.45Q34.56-38.38 30.67-40.57Q26.78-42.77 21.46-42.77L21.46-42.77L13.46-42.77L13.46-7.56Z"></path></svg></g></mask></svg> <defs><filter id="colors339608241"><feColorMatrix type="matrix" values="0 0 0 0 0  0 0 0 0 0.34765625  0 0 0 0 0.5546875  0 0 0 1 0" class="icon-fecolormatrix"></feColorMatrix></filter> <filter id="colorsf1313021391"><feColorMatrix type="matrix" values="0 0 0 0 0.99609375  0 0 0 0 0.99609375  0 0 0 0 0.99609375  0 0 0 1 0" class="icon-fecolormatrix"></feColorMatrix></filter> <filter id="colorsb4291218840"><feColorMatrix type="matrix" values="0 0 0 0 0  0 0 0 0 0  0 0 0 0 0  0 0 0 1 0" class="icon-fecolormatrix"></feColorMatrix></filter></defs><rect v-gra="id" width="158.13241577148438" height="158.13241577148438" transform="translate(-6, -6)" style="pointer-events:none;" fill="url(#nWXOl0r51cBbfN-gulT0V)"></rect></g> <g transform="translate(0,59.58120822906494)"><g data-gra="path-name" fill-rule="" class="tp-name"><g transform="scale(1)"><g><path d="M2.22 0L2.22-25.86 10.88-25.86Q15.1-25.86 18.2-24.31 21.31-22.75 22.98-19.87 24.64-16.98 24.64-13.06L24.64-13.06Q24.64-6.62 20.9-3.31 17.17 0 10.47 0L10.47 0 2.22 0ZM6.92-3.88L10.54-3.88Q15.06-3.88 17.48-6.31 19.91-8.73 19.91-13.06L19.91-13.06Q19.91-15.69 18.83-17.7 17.76-19.72 15.76-20.85 13.76-21.98 11.03-21.98L11.03-21.98 6.92-21.98 6.92-3.88ZM25.2 0L35.56-25.86 40.11-25.86 50.43 0 45.66 0 43.29-5.96 32.34-5.96 30.01 0 25.2 0ZM33.63-9.84L41.99-9.84 37.81-20.83 33.63-9.84ZM59.94 0.55Q57.65 0.55 55.41 0.13 53.17-0.3 51.73-1L51.73-1 51.73-5.03Q53.58-4.14 55.61-3.7 57.65-3.26 59.61-3.26L59.61-3.26Q62.09-3.26 63.38-4.18 64.68-5.11 64.68-6.73L64.68-6.73Q64.68-7.88 64.08-8.64 63.49-9.4 62.34-9.97 61.2-10.54 58.83-11.47L58.83-11.47Q55.2-12.95 53.58-14.76 51.95-16.58 51.95-19.28L51.95-19.28Q51.95-21.39 53.09-23.01 54.24-24.64 56.31-25.53 58.39-26.42 61.09-26.42L61.09-26.42Q63.31-26.42 65.03-26.07 66.75-25.71 68.41-24.97L68.41-24.97 68.41-21.05Q65.19-22.61 61.9-22.61L61.9-22.61Q59.53-22.61 58.24-21.74 56.94-20.87 56.94-19.28L56.94-19.28Q56.94-18.13 57.54-17.41 58.13-16.69 59.11-16.19 60.09-15.69 62.64-14.61L62.64-14.61Q65.23-13.54 66.73-12.51 68.23-11.47 68.99-10.08 69.75-8.7 69.75-6.7L69.75-6.7Q69.75-3.26 67.27-1.35 64.79 0.55 59.94 0.55L59.94 0.55ZM73.44 0L73.44-25.86 78.14-25.86 78.14-15.13 90.58-15.13 90.58-25.86 95.24-25.86 95.24 0 90.58 0 90.58-11.25 78.14-11.25 78.14 0 73.44 0ZM112.78 0.55Q108.71 0.55 105.56-1.09 102.42-2.74 100.68-5.79 98.94-8.84 98.94-12.91L98.94-12.91Q98.94-16.98 100.68-20.04 102.42-23.09 105.56-24.75 108.71-26.42 112.78-26.42L112.78-26.42Q118.14-26.42 121.73-23.86L121.73-23.86 121.73-19.39Q118.51-22.13 113.18-22.13L113.18-22.13Q110.33-22.13 108.19-21 106.04-19.87 104.86-17.8 103.67-15.72 103.67-12.91L103.67-12.91Q103.67-10.1 104.88-8.03 106.08-5.96 108.22-4.83 110.37-3.7 113.18-3.7L113.18-3.7Q115.92-3.7 118.07-4.38 120.21-5.07 122.03-6.59L122.03-6.59 122.03-2.11Q118.62 0.55 112.78 0.55L112.78 0.55ZM131.87 0L131.87-21.98 124.06-21.98 124.06-25.86 144.37-25.86 144.37-21.98 136.57-21.98 136.57 0 131.87 0ZM147.33 0L147.33-25.86 158.14-25.86Q162.43-25.86 164.76-23.75 167.09-21.64 167.09-17.65L167.09-17.65Q167.09-14.8 165.69-12.8 164.28-10.8 161.69-9.95L161.69-9.95 166.94 0 162.13 0 157.14-9.47 152.03-9.47 152.03 0 147.33 0ZM152.03-13.36L157.29-13.36Q159.58-13.36 160.99-14.43 162.39-15.5 162.39-17.65L162.39-17.65Q162.39-21.98 157.29-21.98L157.29-21.98 152.03-21.98 152.03-13.36ZM170.79 0L170.79-25.86 175.49-25.86 175.49-3.88 187.92-3.88 187.92 0 170.79 0Z" transform="translate(-2.2200000286102295, 26.420000076293945)"></path></g> <!----> <!----> <!----> <!----> <!----> <!----> <!----></g></g> <!----></g></g></g><mask id="f674a0dd-5786-49b4-a3c9-d28eebd758ae"><g class="iconsvg-imagesvg icon_container" fill="white"><rect fill-opacity="1" stroke-width="2" x="0" y="0" width="146.13240418118468" height="146.13240418118468" class="image-rect"></rect> <svg viewBox="0 0 60 60" x="0" y="0" width="146.13240418118468" height="146.13240418118468" class="image-svg-svg bn" style="overflow: visible;"><g hollow-target="iconBnFill" mask="url(#0cb42655-6d47-415e-a0fb-acc6d970c371)"><g><svg xmlns="http://www.w3.org/2000/svg" xmlns:xlink="http://www.w3.org/1999/xlink" xmlns:sketch="http://www.bohemiancoding.com/sketch/ns" viewBox="0 0 60 60" version="1.1" x="0" y="0" width="60" height="60" filter="url(#colorsf1313021391)"><g transform="scale(1, 1) skewX(0)"><title>96 - Rounded (Solid)</title><desc>Created with Sketch.</desc><g stroke="white" stroke-width="1" fill-rule="evenodd" sketch:type="MSPage"><g sketch:type="MSLayerGroup"><path d="M49.001,0 L10.999,0 C4.934,0 0,4.934 0,10.999 L0,49.001 C0,55.066 4.934,60 10.999,60 L49.001,60 C55.065,60 60,55.066 60,49.001 L60,10.999 C60,4.934 55.065,0 49.001,0" sketch:type="MSShapeGroup"></path></g></g></g><defs></defs></svg></g> <g><svg xmlns="http://www.w3.org/2000/svg" xmlns:xlink="http://www.w3.org/1999/xlink" viewBox="0 0 43.632000000000005 50.328" width="38" height="38" x="11" y="11"><path transform="translate(-4.32 50.328)" d="M4.32 0L4.32-50.33L21.17-50.33Q29.38-50.33 35.42-47.30Q41.47-44.28 44.71-38.66Q47.95-33.05 47.95-25.42L47.95-25.42Q47.95-12.89 40.68-6.44Q33.41 0 20.38 0L20.38 0L4.32 0ZM13.46-7.56L20.52-7.56Q29.30-7.56 34.02-12.28Q38.74-16.99 38.74-25.42L38.74-25.42Q38.74-30.53 36.65-34.45Q34.56-38.38 30.67-40.57Q26.78-42.77 21.46-42.77L21.46-42.77L13.46-42.77L13.46-7.56Z"></path></svg></g></g><mask id="0cb42655-6d47-415e-a0fb-acc6d970c371"><g><svg xmlns="http://www.w3.org/2000/svg" xmlns:xlink="http://www.w3.org/1999/xlink" xmlns:sketch="http://www.bohemiancoding.com/sketch/ns" viewBox="0 0 60 60" version="1.1" x="0" y="0" width="60" height="60" filtersec="colorsf1313021391"><g transform="scale(1, 1) skewX(0)"><title>96 - Rounded (Solid)</title><desc>Created with Sketch.</desc><g stroke="white" stroke-width="1" fill-rule="evenodd" sketch:type="MSPage"><g sketch:type="MSLayerGroup"><path d="M49.001,0 L10.999,0 C4.934,0 0,4.934 0,10.999 L0,49.001 C0,55.066 4.934,60 10.999,60 L49.001,60 C55.065,60 60,55.066 60,49.001 L60,10.999 C60,4.934 55.065,0 49.001,0" sketch:type="MSShapeGroup"></path></g></g></g><defs></defs></svg></g> <g><svg xmlns="http://www.w3.org/2000/svg" xmlns:xlink="http://www.w3.org/1999/xlink" viewBox="0 0 43.632000000000005 50.328" width="38" height="38" x="11" y="11"><path transform="translate(-4.32 50.328)" d="M4.32 0L4.32-50.33L21.17-50.33Q29.38-50.33 35.42-47.30Q41.47-44.28 44.71-38.66Q47.95-33.05 47.95-25.42L47.95-25.42Q47.95-12.89 40.68-6.44Q33.41 0 20.38 0L20.38 0L4.32 0ZM13.46-7.56L20.52-7.56Q29.30-7.56 34.02-12.28Q38.74-16.99 38.74-25.42L38.74-25.42Q38.74-30.53 36.65-34.45Q34.56-38.38 30.67-40.57Q26.78-42.77 21.46-42.77L21.46-42.77L13.46-42.77L13.46-7.56Z"></path></svg></g></mask></svg> <defs>  </defs></g> <g transform="translate(-19.783790588378906,59.58120822906494)"><rect fill="black" fill-opacity="1" x="-3.5" y="-3.5" width="192.6999969482422" height="33.96999931335449"></rect><rect fill="black" fill-opacity="1" x="-3.5" y="-3.5"></rect></g><g transform="translate(-19.783790588378906,59.58120822906494)" fill="black"><g data-gra="path-name" fill-rule="" class="tp-name"><g transform="scale(1)"><g><path d="M2.22 0L2.22-25.86 10.88-25.86Q15.1-25.86 18.2-24.31 21.31-22.75 22.98-19.87 24.64-16.98 24.64-13.06L24.64-13.06Q24.64-6.62 20.9-3.31 17.17 0 10.47 0L10.47 0 2.22 0ZM6.92-3.88L10.54-3.88Q15.06-3.88 17.48-6.31 19.91-8.73 19.91-13.06L19.91-13.06Q19.91-15.69 18.83-17.7 17.76-19.72 15.76-20.85 13.76-21.98 11.03-21.98L11.03-21.98 6.92-21.98 6.92-3.88ZM25.2 0L35.56-25.86 40.11-25.86 50.43 0 45.66 0 43.29-5.96 32.34-5.96 30.01 0 25.2 0ZM33.63-9.84L41.99-9.84 37.81-20.83 33.63-9.84ZM59.94 0.55Q57.65 0.55 55.41 0.13 53.17-0.3 51.73-1L51.73-1 51.73-5.03Q53.58-4.14 55.61-3.7 57.65-3.26 59.61-3.26L59.61-3.26Q62.09-3.26 63.38-4.18 64.68-5.11 64.68-6.73L64.68-6.73Q64.68-7.88 64.08-8.64 63.49-9.4 62.34-9.97 61.2-10.54 58.83-11.47L58.83-11.47Q55.2-12.95 53.58-14.76 51.95-16.58 51.95-19.28L51.95-19.28Q51.95-21.39 53.09-23.01 54.24-24.64 56.31-25.53 58.39-26.42 61.09-26.42L61.09-26.42Q63.31-26.42 65.03-26.07 66.75-25.71 68.41-24.97L68.41-24.97 68.41-21.05Q65.19-22.61 61.9-22.61L61.9-22.61Q59.53-22.61 58.24-21.74 56.94-20.87 56.94-19.28L56.94-19.28Q56.94-18.13 57.54-17.41 58.13-16.69 59.11-16.19 60.09-15.69 62.64-14.61L62.64-14.61Q65.23-13.54 66.73-12.51 68.23-11.47 68.99-10.08 69.75-8.7 69.75-6.7L69.75-6.7Q69.75-3.26 67.27-1.35 64.79 0.55 59.94 0.55L59.94 0.55ZM73.44 0L73.44-25.86 78.14-25.86 78.14-15.13 90.58-15.13 90.58-25.86 95.24-25.86 95.24 0 90.58 0 90.58-11.25 78.14-11.25 78.14 0 73.44 0ZM112.78 0.55Q108.71 0.55 105.56-1.09 102.42-2.74 100.68-5.79 98.94-8.84 98.94-12.91L98.94-12.91Q98.94-16.98 100.68-20.04 102.42-23.09 105.56-24.75 108.71-26.42 112.78-26.42L112.78-26.42Q118.14-26.42 121.73-23.86L121.73-23.86 121.73-19.39Q118.51-22.13 113.18-22.13L113.18-22.13Q110.33-22.13 108.19-21 106.04-19.87 104.86-17.8 103.67-15.72 103.67-12.91L103.67-12.91Q103.67-10.1 104.88-8.03 106.08-5.96 108.22-4.83 110.37-3.7 113.18-3.7L113.18-3.7Q115.92-3.7 118.07-4.38 120.21-5.07 122.03-6.59L122.03-6.59 122.03-2.11Q118.62 0.55 112.78 0.55L112.78 0.55ZM131.87 0L131.87-21.98 124.06-21.98 124.06-25.86 144.37-25.86 144.37-21.98 136.57-21.98 136.57 0 131.87 0ZM147.33 0L147.33-25.86 158.14-25.86Q162.43-25.86 164.76-23.75 167.09-21.64 167.09-17.65L167.09-17.65Q167.09-14.8 165.69-12.8 164.28-10.8 161.69-9.95L161.69-9.95 166.94 0 162.13 0 157.14-9.47 152.03-9.47 152.03 0 147.33 0ZM152.03-13.36L157.29-13.36Q159.58-13.36 160.99-14.43 162.39-15.5 162.39-17.65L162.39-17.65Q162.39-21.98 157.29-21.98L157.29-21.98 152.03-21.98 152.03-13.36ZM170.79 0L170.79-25.86 175.49-25.86 175.49-3.88 187.92-3.88 187.92 0 170.79 0Z" transform="translate(-2.2200000286102295, 26.420000076293945)"></path></g>       </g></g> </g></mask><defs v-gra="od"></defs><defs v-gra="id"><filter id="dac51139-f264-4ae4-947f-f5f624f71e82" filterUnits="userSpaceOnUse"><feColorMatrix type="matrix" values="0 0 0 0 0.99609375  0 0 0 0 0.99609375  0 0 0 0 0.99609375  0 0 0 1 0"></feColorMatrix></filter><linearGradient x1="0" y1="1" x2="0" y2="0" id="nWXOl0r51cBbfN-gulT0V"><stop offset="0%" stop-color="#9e2de5"></stop><stop offset="100%" stop-color="#7d2bb4"></stop></linearGradient><filter id="42443b3f1de60f6b6fd3b6a9844b4764" filterUnits="userSpaceOnUse"><feColorMatrix type="matrix" values="0 0 0 0 0.99609375  0 0 0 0 0.99609375  0 0 0 0 0.99609375  0 0 0 1 0"></feColorMatrix></filter></defs><mask id="6c155998-b488-4db5-80dd-1906f7af8942"><g class="iconsvg-imagesvg icon_container" fill="white"><rect fill-opacity="1" stroke-width="2" x="0" y="0" width="146.13240418118468" height="146.13240418118468" class="image-rect"></rect> <svg viewBox="0 0 60 60" x="0" y="0" width="146.13240418118468" height="146.13240418118468" class="image-svg-svg bn" style="overflow: visible;"><g hollow-target="iconBnFill" mask="url(#0cb42655-6d47-415e-a0fb-acc6d970c371)"><g><svg xmlns="http://www.w3.org/2000/svg" xmlns:xlink="http://www.w3.org/1999/xlink" xmlns:sketch="http://www.bohemiancoding.com/sketch/ns" viewBox="0 0 60 60" version="1.1" x="0" y="0" width="60" height="60" filter="url(#colorsf1313021391)"><g transform="scale(1, 1) skewX(0)"><title>96 - Rounded (Solid)</title><desc>Created with Sketch.</desc><g stroke="white" stroke-width="1" fill-rule="evenodd" sketch:type="MSPage"><g sketch:type="MSLayerGroup"><path d="M49.001,0 L10.999,0 C4.934,0 0,4.934 0,10.999 L0,49.001 C0,55.066 4.934,60 10.999,60 L49.001,60 C55.065,60 60,55.066 60,49.001 L60,10.999 C60,4.934 55.065,0 49.001,0" sketch:type="MSShapeGroup"></path></g></g></g><defs></defs></svg></g> <g><svg xmlns="http://www.w3.org/2000/svg" xmlns:xlink="http://www.w3.org/1999/xlink" viewBox="0 0 43.632000000000005 50.328" width="38" height="38" x="11" y="11"><path transform="translate(-4.32 50.328)" d="M4.32 0L4.32-50.33L21.17-50.33Q29.38-50.33 35.42-47.30Q41.47-44.28 44.71-38.66Q47.95-33.05 47.95-25.42L47.95-25.42Q47.95-12.89 40.68-6.44Q33.41 0 20.38 0L20.38 0L4.32 0ZM13.46-7.56L20.52-7.56Q29.30-7.56 34.02-12.28Q38.74-16.99 38.74-25.42L38.74-25.42Q38.74-30.53 36.65-34.45Q34.56-38.38 30.67-40.57Q26.78-42.77 21.46-42.77L21.46-42.77L13.46-42.77L13.46-7.56Z"></path></svg></g></g><mask id="0cb42655-6d47-415e-a0fb-acc6d970c371"><g><svg xmlns="http://www.w3.org/2000/svg" xmlns:xlink="http://www.w3.org/1999/xlink" xmlns:sketch="http://www.bohemiancoding.com/sketch/ns" viewBox="0 0 60 60" version="1.1" x="0" y="0" width="60" height="60" filtersec="colorsf1313021391"><g transform="scale(1, 1) skewX(0)"><title>96 - Rounded (Solid)</title><desc>Created with Sketch.</desc><g stroke="white" stroke-width="1" fill-rule="evenodd" sketch:type="MSPage"><g sketch:type="MSLayerGroup"><path d="M49.001,0 L10.999,0 C4.934,0 0,4.934 0,10.999 L0,49.001 C0,55.066 4.934,60 10.999,60 L49.001,60 C55.065,60 60,55.066 60,49.001 L60,10.999 C60,4.934 55.065,0 49.001,0" sketch:type="MSShapeGroup"></path></g></g></g><defs></defs></svg></g> <g><svg xmlns="http://www.w3.org/2000/svg" xmlns:xlink="http://www.w3.org/1999/xlink" viewBox="0 0 43.632000000000005 50.328" width="38" height="38" x="11" y="11"><path transform="translate(-4.32 50.328)" d="M4.32 0L4.32-50.33L21.17-50.33Q29.38-50.33 35.42-47.30Q41.47-44.28 44.71-38.66Q47.95-33.05 47.95-25.42L47.95-25.42Q47.95-12.89 40.68-6.44Q33.41 0 20.38 0L20.38 0L4.32 0ZM13.46-7.56L20.52-7.56Q29.30-7.56 34.02-12.28Q38.74-16.99 38.74-25.42L38.74-25.42Q38.74-30.53 36.65-34.45Q34.56-38.38 30.67-40.57Q26.78-42.77 21.46-42.77L21.46-42.77L13.46-42.77L13.46-7.56Z"></path></svg></g></mask></svg> <defs>  </defs><rect v-gra="id" width="158.13241577148438" height="158.13241577148438" transform="translate(-6, -6)" style="pointer-events:none;"></rect></g> <g transform="translate(-19.783790588378906,59.58120822906494)"><rect fill="black" fill-opacity="1" x="-3.5" y="-3.5" width="192.6999969482422" height="33.96999931335449"></rect><rect fill="black" fill-opacity="1" x="-3.5" y="-3.5"></rect></g><g transform="translate(-19.783790588378906,59.58120822906494)" fill="black"><g data-gra="path-name" fill-rule="" class="tp-name"><g transform="scale(1)"><g><path d="M2.22 0L2.22-25.86 10.88-25.86Q15.1-25.86 18.2-24.31 21.31-22.75 22.98-19.87 24.64-16.98 24.64-13.06L24.64-13.06Q24.64-6.62 20.9-3.31 17.17 0 10.47 0L10.47 0 2.22 0ZM6.92-3.88L10.54-3.88Q15.06-3.88 17.48-6.31 19.91-8.73 19.91-13.06L19.91-13.06Q19.91-15.69 18.83-17.7 17.76-19.72 15.76-20.85 13.76-21.98 11.03-21.98L11.03-21.98 6.92-21.98 6.92-3.88ZM25.2 0L35.56-25.86 40.11-25.86 50.43 0 45.66 0 43.29-5.96 32.34-5.96 30.01 0 25.2 0ZM33.63-9.84L41.99-9.84 37.81-20.83 33.63-9.84ZM59.94 0.55Q57.65 0.55 55.41 0.13 53.17-0.3 51.73-1L51.73-1 51.73-5.03Q53.58-4.14 55.61-3.7 57.65-3.26 59.61-3.26L59.61-3.26Q62.09-3.26 63.38-4.18 64.68-5.11 64.68-6.73L64.68-6.73Q64.68-7.88 64.08-8.64 63.49-9.4 62.34-9.97 61.2-10.54 58.83-11.47L58.83-11.47Q55.2-12.95 53.58-14.76 51.95-16.58 51.95-19.28L51.95-19.28Q51.95-21.39 53.09-23.01 54.24-24.64 56.31-25.53 58.39-26.42 61.09-26.42L61.09-26.42Q63.31-26.42 65.03-26.07 66.75-25.71 68.41-24.97L68.41-24.97 68.41-21.05Q65.19-22.61 61.9-22.61L61.9-22.61Q59.53-22.61 58.24-21.74 56.94-20.87 56.94-19.28L56.94-19.28Q56.94-18.13 57.54-17.41 58.13-16.69 59.11-16.19 60.09-15.69 62.64-14.61L62.64-14.61Q65.23-13.54 66.73-12.51 68.23-11.47 68.99-10.08 69.75-8.7 69.75-6.7L69.75-6.7Q69.75-3.26 67.27-1.35 64.79 0.55 59.94 0.55L59.94 0.55ZM73.44 0L73.44-25.86 78.14-25.86 78.14-15.13 90.58-15.13 90.58-25.86 95.24-25.86 95.24 0 90.58 0 90.58-11.25 78.14-11.25 78.14 0 73.44 0ZM112.78 0.55Q108.71 0.55 105.56-1.09 102.42-2.74 100.68-5.79 98.94-8.84 98.94-12.91L98.94-12.91Q98.94-16.98 100.68-20.04 102.42-23.09 105.56-24.75 108.71-26.42 112.78-26.42L112.78-26.42Q118.14-26.42 121.73-23.86L121.73-23.86 121.73-19.39Q118.51-22.13 113.18-22.13L113.18-22.13Q110.33-22.13 108.19-21 106.04-19.87 104.86-17.8 103.67-15.72 103.67-12.91L103.67-12.91Q103.67-10.1 104.88-8.03 106.08-5.96 108.22-4.83 110.37-3.7 113.18-3.7L113.18-3.7Q115.92-3.7 118.07-4.38 120.21-5.07 122.03-6.59L122.03-6.59 122.03-2.11Q118.62 0.55 112.78 0.55L112.78 0.55ZM131.87 0L131.87-21.98 124.06-21.98 124.06-25.86 144.37-25.86 144.37-21.98 136.57-21.98 136.57 0 131.87 0ZM147.33 0L147.33-25.86 158.14-25.86Q162.43-25.86 164.76-23.75 167.09-21.64 167.09-17.65L167.09-17.65Q167.09-14.8 165.69-12.8 164.28-10.8 161.69-9.95L161.69-9.95 166.94 0 162.13 0 157.14-9.47 152.03-9.47 152.03 0 147.33 0ZM152.03-13.36L157.29-13.36Q159.58-13.36 160.99-14.43 162.39-15.5 162.39-17.65L162.39-17.65Q162.39-21.98 157.29-21.98L157.29-21.98 152.03-21.98 152.03-13.36ZM170.79 0L170.79-25.86 175.49-25.86 175.49-3.88 187.92-3.88 187.92 0 170.79 0Z" transform="translate(-2.2200000286102295, 26.420000076293945)"></path></g>       </g></g> </g></mask></svg>
