<?xml version="1.0" standalone="no"?>
<!DOCTYPE svg PUBLIC "-//W3C//DTD SVG 20010904//EN"
 "http://www.w3.org/TR/2001/REC-SVG-20010904/DTD/svg10.dtd">
<svg version="1.0" xmlns="http://www.w3.org/2000/svg"
 width="656.000000pt" height="482.000000pt" viewBox="0 0 656.000000 482.000000"
 preserveAspectRatio="xMidYMid meet">

<g transform="translate(0.000000,482.000000) scale(0.100000,-0.100000)"
fill="#000000" stroke="none">
<path d="M3020 3555 l-255 -255 235 0 c248 0 356 -12 475 -51 169 -57 316
-157 409 -281 52 -69 116 -188 116 -215 0 -10 42 -13 177 -13 l178 0 -535 535
c-294 294 -537 535 -540 535 -3 0 -120 -115 -260 -255z"/>
<path d="M2350 2885 l-145 -145 148 0 147 0 0 145 c0 80 -1 145 -3 145 -1 0
-67 -65 -147 -145z"/>
<path d="M2830 2885 l0 -145 410 0 411 0 -31 45 c-51 75 -120 134 -205 176
-114 56 -186 69 -402 69 l-183 0 0 -145z"/>
<path d="M2567 2660 c-76 -19 -117 -66 -117 -133 0 -57 36 -97 126 -142 45
-22 89 -46 98 -54 16 -14 21 -58 8 -77 -23 -35 -93 -43 -180 -20 l-53 13 3
-36 c3 -34 6 -37 53 -49 63 -16 170 -10 213 12 48 25 74 71 69 123 -7 66 -29
90 -134 141 -102 50 -121 70 -104 114 17 44 117 56 194 23 14 -6 17 -2 17 29
0 29 -5 38 -23 45 -39 15 -130 20 -170 11z"/>
<path d="M3540 2654 c-72 -19 -118 -57 -153 -125 -26 -49 -28 -61 -25 -134 6
-112 41 -170 133 -218 59 -31 202 -31 263 1 39 21 42 26 42 62 l0 40 -42 -23
c-64 -33 -170 -35 -222 -5 -72 43 -100 107 -84 196 16 91 78 136 188 135 44 0
78 -7 108 -21 l42 -20 0 39 c0 38 -3 41 -42 59 -62 27 -143 32 -208 14z"/>
<path d="M1490 2411 l0 -251 102 0 c181 0 268 41 307 146 37 99 23 197 -40
268 -52 59 -104 76 -251 83 l-118 6 0 -252z m272 144 c66 -48 88 -164 45 -239
-30 -55 -74 -78 -158 -84 l-69 -5 0 178 0 177 78 -3 c57 -3 84 -9 104 -24z"/>
<path d="M2037 2417 c-53 -133 -97 -246 -97 -250 0 -5 19 -7 42 -5 41 3 43 5
63 56 l20 52 110 0 110 0 20 -52 c20 -51 22 -53 63 -56 23 -2 42 0 42 5 0 4
-44 117 -97 250 l-97 243 -41 0 -41 0 -97 -243z m182 35 l39 -102 -83 0 -83 0
41 105 c22 58 41 104 43 102 2 -1 21 -48 43 -105z"/>
<path d="M2867 2653 c-4 -3 -7 -116 -7 -250 l0 -243 45 0 45 0 0 110 0 110
120 0 120 0 0 -110 0 -110 45 0 45 0 0 251 0 250 -42 -3 -43 -3 -3 -102 -3
-103 -119 0 -120 0 0 105 0 105 -38 0 c-21 0 -42 -3 -45 -7z"/>
<path d="M3840 2620 l0 -40 75 0 75 0 0 -210 0 -210 45 0 45 0 0 210 0 210 75
0 75 0 0 40 0 40 -195 0 -195 0 0 -40z"/>
<path d="M4290 2411 l0 -251 45 0 45 0 0 90 0 90 49 0 50 0 48 -90 48 -90 43
0 c24 0 42 4 40 8 -1 4 -23 48 -48 96 -36 71 -42 90 -30 94 30 11 69 60 80
101 20 76 -7 144 -73 178 -23 12 -68 18 -164 21 l-133 5 0 -252z m265 144 c16
-15 25 -36 25 -55 0 -19 -9 -40 -25 -55 -21 -22 -33 -25 -100 -25 l-75 0 0 80
0 80 75 0 c67 0 79 -3 100 -25z"/>
<path d="M4740 2410 l0 -250 165 0 165 0 0 35 0 35 -120 0 -120 0 0 215 0 215
-45 0 -45 0 0 -250z"/>
<path d="M2350 1935 c80 -80 146 -145 147 -145 2 0 3 65 3 145 l0 145 -147 0
-148 0 145 -145z"/>
<path d="M2832 1933 l3 -148 178 2 c208 2 294 17 407 70 78 38 177 126 213
191 l18 32 -411 0 -411 0 3 -147z"/>
<path d="M4002 2058 c-3 -13 -26 -63 -51 -113 -82 -165 -257 -307 -452 -370
-141 -44 -235 -55 -494 -55 l-240 0 258 -257 257 -258 537 538 538 537 -173 0
c-172 0 -174 0 -180 -22z"/>
</g>
</svg>
